# xmcd
#
# Track frame offsets:
#	150
#	13137
#	30200
#	45435
#	58650
#	71625
#	85875
#	97297
#	110287
#	128712
#
# Disc length: 1918
#
# Revision: 1
# Processed by: cddbd v1.5.1PL0 Copyright (c) Steve Scherf et al.
# Submitted via: CDex 1.50
# Normalized: r0:DSETVAR1
#
DISCID=7d077c0a
DTITLE=Various Artist - Country Classics - Volume 9 (1980-1993)
DYEAR=1900
DGENRE=Country
TTITLE0=Tanya Tucker - Can I See You Tonight
TTITLE1=Conway Twitty - Crazy In Love
TTITLE2=Patty Loveless - Jealous Bone
TTITLE3=Lorrie Morgan - Easy Love
TTITLE4=Mark Collie - Let Her Go
TTITLE5=Lee Greenwood - I.O.U.
TTITLE6=Kelly Willis - Heaven's Just A Sin Away
TTITLE7=Oak Ridge Boys - Bobbie Sue
TTITLE8=Steve Wariner - Some Fools Never Learn
TTITLE9=John Schneider - You're The Last Thing I Needed Tonight
EXTD=
EXTT0=
EXTT1=
EXTT2=
EXTT3=
EXTT4=
EXTT5=
EXTT6=
EXTT7=
EXTT8=
EXTT9=
PLAYORDER=
